<?xml version="1.0" encoding="UTF-8" standalone="no"?>
<!-- Created with Inkscape (http://www.inkscape.org/) -->

<svg xmlns:dc="http://purl.org/dc/elements/1.1/" xmlns:cc="http://creativecommons.org/ns#" xmlns:rdf="http://www.w3.org/1999/02/22-rdf-syntax-ns#" xmlns:svg="http://www.w3.org/2000/svg" xmlns="http://www.w3.org/2000/svg" xmlns:sodipodi="http://sodipodi.sourceforge.net/DTD/sodipodi-0.dtd" xmlns:inkscape="http://www.inkscape.org/namespaces/inkscape" id="svg2985" version="1.1" inkscape:version="0.48.5 r10040" width="1222.6349" height="625.2821" sodipodi:docname="MCI_logo_old.PNG">
  <metadata id="metadata2991">
    <rdf:RDF>
      <cc:Work rdf:about="">
        <dc:format>image/svg+xml</dc:format>
        <dc:type rdf:resource="http://purl.org/dc/dcmitype/StillImage" />
        <dc:title></dc:title>
      </cc:Work>
    </rdf:RDF>
  </metadata>
  <defs id="defs2989" />
  <sodipodi:namedview pagecolor="#ffffff" bordercolor="#666666" borderopacity="1" objecttolerance="10" gridtolerance="10" guidetolerance="10" inkscape:pageopacity="0" inkscape:pageshadow="2" inkscape:window-width="1366" inkscape:window-height="706" id="namedview2987" showgrid="false" fit-margin-top="0" fit-margin-left="0" fit-margin-right="0" fit-margin-bottom="0" inkscape:zoom="0.46528939" inkscape:cx="-340.21058" inkscape:cy="621.80338" inkscape:window-x="-8" inkscape:window-y="-8" inkscape:window-maximized="1" inkscape:current-layer="svg2985" />
  <g id="g3032" transform="translate(-40.308465,-40.758176)">
    <path sodipodi:nodetypes="cccccccccccccccccccccccccccc" inkscape:connector-curvature="0" id="path3013" style="font-size:90px;font-style:normal;font-weight:bold;text-align:start;text-anchor:start;fill:#ef4423;fill-opacity:1;font-family:Rockwell" d="m 40.308465,655.9457 0,-79.39543 35.325277,0 0,-288.69611 -35.084485,0 0,-76.26515 206.254823,0 67.0152,318.55307 69.94094,-318.55307 205.53019,0 0,76.26515 -35.94262,0 0,288.69611 35.70183,0 0,79.39543 -175.76505,0 0,-79.39543 35.84064,0 0.72238,-288.69611 -0.33555,0 -91.26834,368.09154 -104.19044,0 -88.04776,-368.09154 -0.82738,0 0,288.69611 34.6549,0 0,79.39543 z" />
    <path sodipodi:nodetypes="cccccsssssccsssscccc" inkscape:connector-curvature="0" id="path3015" style="font-size:90px;font-style:normal;font-weight:bold;text-align:start;text-anchor:start;fill:#ef4423;fill-opacity:1;font-family:Rockwell" d="m 926.32089,214.77267 91.19631,0 0,163.38645 -99.15933,0 c 0,-55.8851 -29.78619,-95.2471 -80.00485,-95.24752 -36.28444,3.7e-4 -59.49097,21.99452 -74.34345,50.34143 -11.12192,21.227 -14.94707,62.07546 -15.72599,95.19687 -1.00653,42.79906 1.86382,73.25851 13.97393,102.65884 12.55543,30.48154 34.62952,53.11158 73.42654,52.6924 24.89921,-0.26901 39.75145,-9.46877 52.37262,-21.66973 9.04537,-8.74415 14.12037,-21.46819 23.21625,-57.52789 l 112.91718,-0.47078 c 0.3333,109.61483 -89.26236,161.90753 -183.70771,161.90754 -66.69905,-1e-5 -124.11486,-20.46169 -163.02704,-67.25259 -34.80394,-41.85082 -50.40552,-90.61462 -49.98639,-164.5811 0.26288,-46.39483 6.29778,-86.32421 20.54528,-122.62731 12.99825,-33.12008 21.1916,-50.94103 60.20426,-80.70486 33.98313,-21.79996 62.47442,-27.25177 98.04738,-27.25221 55.61003,0 90.17362,16.64204 120.05501,44.05734 z" />
    <path sodipodi:nodetypes="ccccccccccccc" inkscape:connector-curvature="0" id="path3017" style="font-size:90px;font-style:normal;font-weight:bold;text-align:start;text-anchor:start;fill:#ef4423;fill-opacity:1;font-family:Rockwell" d="m 1054.33,656.05022 0,-79.82048 38.0125,0 0,-288.37558 -37.3273,0 0,-75.70923 190.7348,0 0,75.70923 -37.8609,0 0,288.37558 37.1757,0 0,79.82048 z" />
    <path sodipodi:nodetypes="ccccccc" inkscape:connector-curvature="0" id="path3022" d="m 327.05907,217.28924 -19.20401,0.0156 0,-176.546664 955.08834,0 0,19.841087 -935.92843,0 z" style="fill:black;stroke:none" />
  </g>
</svg>
